<?xml version="1.0" encoding="UTF-8" standalone="no"?>
<svg
   height="300mm"
   viewBox="0 0 300 300.00001"
   width="300mm"
   version="1.1"
   id="svg7"
   sodipodi:docname="woodcut-stompbox-toggle-switch-version-UNTESTED.svg"
   inkscape:version="1.3.2 (091e20e, 2023-11-25)"
   xmlns:inkscape="http://www.inkscape.org/namespaces/inkscape"
   xmlns:sodipodi="http://sodipodi.sourceforge.net/DTD/sodipodi-0.dtd"
   xmlns="http://www.w3.org/2000/svg"
   xmlns:svg="http://www.w3.org/2000/svg"
   xmlns:rdf="http://www.w3.org/1999/02/22-rdf-syntax-ns#"
   xmlns:cc="http://creativecommons.org/ns#"
   xmlns:dc="http://purl.org/dc/elements/1.1/">
  <defs
     id="defs7" />
  <sodipodi:namedview
     id="namedview7"
     pagecolor="#505050"
     bordercolor="#eeeeee"
     borderopacity="1"
     inkscape:showpageshadow="0"
     inkscape:pageopacity="0"
     inkscape:pagecheckerboard="0"
     inkscape:deskcolor="#d1d1d1"
     inkscape:document-units="mm"
     showguides="false"
     inkscape:lockguides="false"
     inkscape:zoom="1.5754861"
     inkscape:cx="471.91784"
     inkscape:cy="356.7153"
     inkscape:window-width="2560"
     inkscape:window-height="1387"
     inkscape:window-x="2560"
     inkscape:window-y="25"
     inkscape:window-maximized="0"
     inkscape:current-layer="svg7" />
  <!--
ClosedBox - Fully closed box


This box is more of a building block than a finished item.
Use a vector graphics program (like Inkscape) to add holes or adjust the base
plate.

See BasedBox for variant with a base.


Created with Boxes.py (https://festi.info/boxes.py)
Creation date: 2024-05-13 21:13:13
Command line (remove spaces between dashes): boxes ClosedBox - -x=250 - -y=70.0 - -h=34.5 - -thickness=3.1 - -labels=0
Url: http://boxes.hackerspace-bamberg.de/boxes.py/ClosedBox?FingerJoint_angle=90.0&FingerJoint_style=rectangular&FingerJoint_surroundingspaces=2.0&FingerJoint_bottom_lip=0.0&FingerJoint_edge_width=1.0&FingerJoint_extra_length=0.0&FingerJoint_finger=2.0&FingerJoint_play=0.0&FingerJoint_space=2.0&FingerJoint_width=1.0&x=250&y=70.0&h=34.5&outside=0&outside=1&thickness=3.1&format=svg&tabs=0.0&qr_code=0&debug=0&labels=0&reference=100&inner_corners=loop&burn=0.1&language=en&render=2
Url short: http://boxes.hackerspace-bamberg.de/boxes.py/ClosedBox?x=250&y=70.0&h=34.5&thickness=3.1&labels=0
SettingsUrl: http://boxes.hackerspace-bamberg.de/boxes.py/ClosedBox?FingerJoint_angle=90.0&FingerJoint_style=rectangular&FingerJoint_surroundingspaces=2.0&FingerJoint_bottom_lip=0.0&FingerJoint_edge_width=1.0&FingerJoint_extra_length=0.0&FingerJoint_finger=2.0&FingerJoint_play=0.0&FingerJoint_space=2.0&FingerJoint_width=1.0&x=250&y=70.0&h=34.5&outside=0&outside=1&thickness=3.1&format=svg&tabs=0.0&qr_code=0&debug=0&labels=0&reference=100&inner_corners=loop&burn=0.1&language=en&render=2
SettingsUrl short: http://boxes.hackerspace-bamberg.de/boxes.py/ClosedBox?x=250&y=70.0&h=34.5&thickness=3.1&labels=0
-->
  <title
     id="title1">ClosedBox</title>
  <metadata
     id="metadata1">
    <rdf:RDF>
      <cc:Work>
        <dc:title>ClosedBox</dc:title>
        <dc:date>2024-05-13 21:13:13</dc:date>
        <dc:source>http://boxes.hackerspace-bamberg.de/boxes.py/ClosedBox?FingerJoint_angle=90.0&amp;FingerJoint_style=rectangular&amp;FingerJoint_surroundingspaces=2.0&amp;FingerJoint_bottom_lip=0.0&amp;FingerJoint_edge_width=1.0&amp;FingerJoint_extra_length=0.0&amp;FingerJoint_finger=2.0&amp;FingerJoint_play=0.0&amp;FingerJoint_space=2.0&amp;FingerJoint_width=1.0&amp;x=250&amp;y=70.0&amp;h=34.5&amp;outside=0&amp;outside=1&amp;thickness=3.1&amp;format=svg&amp;tabs=0.0&amp;qr_code=0&amp;debug=0&amp;labels=0&amp;reference=100&amp;inner_corners=loop&amp;burn=0.1&amp;language=en&amp;render=2</dc:source>
        <dc:source>http://boxes.hackerspace-bamberg.de/boxes.py/ClosedBox?x=250&amp;y=70.0&amp;h=34.5&amp;thickness=3.1&amp;labels=0</dc:source>
        <dc:description>Fully closed box

This box is more of a building block than a finished item.
Use a vector graphics program (like Inkscape) to add holes or adjust the base
plate.

See BasedBox for variant with a base.

Created with Boxes.py (https://festi.info/boxes.py)
Command line: boxes ClosedBox --FingerJoint_angle=90.0 --FingerJoint_style=rectangular --FingerJoint_surroundingspaces=2.0 --FingerJoint_bottom_lip=0.0 --FingerJoint_edge_width=1.0 --FingerJoint_extra_length=0.0 --FingerJoint_finger=2.0 --FingerJoint_play=0.0 --FingerJoint_space=2.0 --FingerJoint_width=1.0 --x=250 --y=70.0 --h=34.5 --outside=0 --outside=1 --thickness=3.1 --format=svg --tabs=0.0 --qr_code=0 --debug=0 --labels=0 --reference=100 --inner_corners=loop --burn=0.1
Command line short: boxes ClosedBox --x=250 --y=70.0 --h=34.5 --thickness=3.1 --labels=0
Url: http://boxes.hackerspace-bamberg.de/boxes.py/ClosedBox?FingerJoint_angle=90.0&amp;FingerJoint_style=rectangular&amp;FingerJoint_surroundingspaces=2.0&amp;FingerJoint_bottom_lip=0.0&amp;FingerJoint_edge_width=1.0&amp;FingerJoint_extra_length=0.0&amp;FingerJoint_finger=2.0&amp;FingerJoint_play=0.0&amp;FingerJoint_space=2.0&amp;FingerJoint_width=1.0&amp;x=250&amp;y=70.0&amp;h=34.5&amp;outside=0&amp;outside=1&amp;thickness=3.1&amp;format=svg&amp;tabs=0.0&amp;qr_code=0&amp;debug=0&amp;labels=0&amp;reference=100&amp;inner_corners=loop&amp;burn=0.1&amp;language=en&amp;render=2
Url short: http://boxes.hackerspace-bamberg.de/boxes.py/ClosedBox?x=250&amp;y=70.0&amp;h=34.5&amp;thickness=3.1&amp;labels=0
SettingsUrl: http://boxes.hackerspace-bamberg.de/boxes.py/ClosedBox?FingerJoint_angle=90.0&amp;FingerJoint_style=rectangular&amp;FingerJoint_surroundingspaces=2.0&amp;FingerJoint_bottom_lip=0.0&amp;FingerJoint_edge_width=1.0&amp;FingerJoint_extra_length=0.0&amp;FingerJoint_finger=2.0&amp;FingerJoint_play=0.0&amp;FingerJoint_space=2.0&amp;FingerJoint_width=1.0&amp;x=250&amp;y=70.0&amp;h=34.5&amp;outside=0&amp;outside=1&amp;thickness=3.1&amp;format=svg&amp;tabs=0.0&amp;qr_code=0&amp;debug=0&amp;labels=0&amp;reference=100&amp;inner_corners=loop&amp;burn=0.1&amp;language=en&amp;render=2
SettingsUrl short: http://boxes.hackerspace-bamberg.de/boxes.py/ClosedBox?x=250&amp;y=70.0&amp;h=34.5&amp;thickness=3.1&amp;labels=0
</dc:description>
      </cc:Work>
    </rdf:RDF>
  </metadata>
  <g
     id="p-0"
     style="fill:none;stroke-linecap:round;stroke-linejoin:round"
     transform="rotate(-90,117.70259,5.9550502)"
     inkscape:transform-center-x="-72.549039"
     inkscape:transform-center-y="3.3587518">
    <path
       d="m 10.1,164.45 h 100 v -10 h -100 z"
       stroke="#000000"
       stroke-width="0.2"
       id="path1" />
    <text
       dominant-baseline="hanging"
       font-size="6px"
       style="font-style:normal;font-weight:normal;font-family:sans-serif;fill:#000000"
       text-anchor="middle"
       transform="translate(60.1,156.45)"
       id="text1">100.0mm, burn:0.10mm</text>
  </g>
  <g
     id="p-1"
     style="fill:none;stroke:#ff0000;stroke-width:0.0254;stroke-linecap:round;stroke-linejoin:round;stroke-dasharray:none">
    <path
       d="m 13.2,152.7 h 7.2 c 0.055,0 0.1,-0.045 0.1,-0.1 v -3 c 0,-0.1 -0.1,0 0,0 h 6 c 0.1,0 0,-0.1 0,0 v 3 c 0,0.055 0.045,0.1 0.1,0.1 h 6.2 c 0.055,0 0.1,-0.045 0.1,-0.1 v -3 c 0,-0.1 -0.1,0 0,0 h 6 c 0.1,0 0,-0.1 0,0 v 3 c 0,0.055 0.045,0.1 0.1,0.1 h 6.2 c 0.055,0 0.1,-0.045 0.1,-0.1 v -3 c 0,-0.1 -0.1,0 0,0 h 6 c 0.1,0 0,-0.1 0,0 v 3 c 0,0.055 0.045,0.1 0.1,0.1 h 6.2 c 0.055,0 0.1,-0.045 0.1,-0.1 v -3 c 0,-0.1 -0.1,0 0,0 h 6 c 0.1,0 0,-0.1 0,0 v 3 c 0,0.055 0.045,0.1 0.1,0.1 H 70 c 0.055,0 0.1,-0.045 0.1,-0.1 v -3 c 0,-0.1 -0.1,0 0,0 h 6 c 0.1,0 0,-0.1 0,0 v 3 c 0,0.055 0.045,0.1 0.1,0.1 h 6.2 c 0.055,0 0.1,-0.045 0.1,-0.1 v -3 c 0,-0.1 -0.1,0 0,0 h 6 c 0.1,0 0,-0.1 0,0 v 3 c 0,0.055 0.045,0.1 0.1,0.1 h 6.2 c 0.055,0 0.1,-0.045 0.1,-0.1 v -3 c 0,-0.1 -0.1,0 0,0 h 6 c 0.1,0 0,-0.1 0,0 v 3 c 0,0.055 0.045,0.1 0.1,0.1 h 6.2 c 0.055,0 0.1,-0.045 0.1,-0.1 v -3 c 0,-0.1 -0.1,0 0,0 h 6 c 0.1,0 0,-0.1 0,0 v 3 c 0,0.055 0.045,0.1 0.1,0.1 h 6.2 c 0.055,0 0.1,-0.045 0.1,-0.1 v -3 c 0,-0.1 -0.1,0 0,0 h 6 c 0.1,0 0,-0.1 0,0 v 3 c 0,0.055 0.045,0.1 0.1,0.1 h 6.2 c 0.055,0 0.1,-0.045 0.1,-0.1 v -3 c 0,-0.1 -0.1,0 0,0 h 6 c 0.1,0 0,-0.1 0,0 v 3 c 0,0.055 0.045,0.1 0.1,0.1 h 6.2 c 0.055,0 0.1,-0.045 0.1,-0.1 v -3 c 0,-0.1 -0.1,0 0,0 h 6 c 0.1,0 0,-0.1 0,0 v 3 c 0,0.055 0.045,0.1 0.1,0.1 h 6.2 c 0.055,0 0.1,-0.045 0.1,-0.1 v -3 c 0,-0.1 -0.1,0 0,0 h 6 c 0.1,0 0,-0.1 0,0 v 3 c 0,0.055 0.045,0.1 0.1,0.1 h 6.2 c 0.055,0 0.1,-0.045 0.1,-0.1 v -3 c 0,-0.1 -0.1,0 0,0 h 6 c 0.1,0 0,-0.1 0,0 v 3 c 0,0.055 0.045,0.1 0.1,0.1 h 6.2 c 0.055,0 0.1,-0.045 0.1,-0.1 v -3 c 0,-0.1 -0.1,0 0,0 h 6 c 0.1,0 0,-0.1 0,0 v 3 c 0,0.055 0.045,0.1 0.1,0.1 h 6.2 c 0.055,0 0.1,-0.045 0.1,-0.1 v -3 c 0,-0.1 -0.1,0 0,0 h 6 c 0.1,0 0,-0.1 0,0 v 3 c 0,0.055 0.045,0.1 0.1,0.1 h 6.2 c 0.055,0 0.1,-0.045 0.1,-0.1 v -3 c 0,-0.1 -0.1,0 0,0 h 6 c 0.1,0 0,-0.1 0,0 v 3 c 0,0.055 0.045,0.1 0.1,0.1 h 6.2 c 0.055,0 0.1,-0.045 0.1,-0.1 v -3 c 0,-0.1 -0.1,0 0,0 h 6 c 0.1,0 0,-0.1 0,0 v 3 c 0,0.055 0.045,0.1 0.1,0.1 h 6.2 c 0.055,0 0.1,-0.045 0.1,-0.1 v -3 c 0,-0.1 -0.1,0 0,0 h 6 c 0.1,0 0,-0.1 0,0 v 3 c 0,0.055 0.045,0.1 0.1,0.1 h 6.2 c 0.055,0 0.1,-0.045 0.1,-0.1 v -3 c 0,-0.1 -0.1,0 0,0 h 6 c 0.1,0 0,-0.1 0,0 v 3 c 0,0.055 0.045,0.1 0.1,0.1 h 7.2 3.1 c 0.055,0 0.1,-0.045 0.1,-0.1 v -3.1 -11.05 c 0,-0.055 -0.045,-0.1 -0.1,-0.1 h -3 c -0.1,0 0,0.1 0,0 v -6 c 0,-0.1 -0.1,0 0,0 h 3 c 0.055,0 0.1,-0.045 0.1,-0.1 v -11.05 -3.1 c 0,-0.055 -0.045,-0.1 -0.1,-0.1 h -3.1 -7.2 c -0.055,0 -0.1,0.045 -0.1,0.1 v 3 c 0,0.1 0.1,0 0,0 h -6 c -0.1,0 0,0.1 0,0 v -3 c 0,-0.055 -0.045,-0.1 -0.1,-0.1 h -6.2 c -0.055,0 -0.1,0.045 -0.1,0.1 v 3 c 0,0.1 0.1,0 0,0 h -6 c -0.1,0 0,0.1 0,0 v -3 c 0,-0.055 -0.045,-0.1 -0.1,-0.1 H 225 c -0.055,0 -0.1,0.045 -0.1,0.1 v 3 c 0,0.1 0.1,0 0,0 h -6 c -0.1,0 0,0.1 0,0 v -3 c 0,-0.055 -0.045,-0.1 -0.1,-0.1 h -6.2 c -0.055,0 -0.1,0.045 -0.1,0.1 v 3 c 0,0.1 0.1,0 0,0 h -6 c -0.1,0 0,0.1 0,0 v -3 c 0,-0.055 -0.045,-0.1 -0.1,-0.1 h -6.2 c -0.055,0 -0.1,0.045 -0.1,0.1 v 3 c 0,0.1 0.1,0 0,0 h -6 c -0.1,0 0,0.1 0,0 v -3 c 0,-0.055 -0.045,-0.1 -0.1,-0.1 h -6.2 c -0.055,0 -0.1,0.045 -0.1,0.1 v 3 c 0,0.1 0.1,0 0,0 h -6 c -0.1,0 0,0.1 0,0 v -3 c 0,-0.055 -0.045,-0.1 -0.1,-0.1 h -6.2 c -0.055,0 -0.1,0.045 -0.1,0.1 v 3 c 0,0.1 0.1,0 0,0 h -6 c -0.1,0 0,0.1 0,0 v -3 c 0,-0.055 -0.045,-0.1 -0.1,-0.1 H 163 c -0.055,0 -0.1,0.045 -0.1,0.1 v 3 c 0,0.1 0.1,0 0,0 h -6 c -0.1,0 0,0.1 0,0 v -3 c 0,-0.055 -0.045,-0.1 -0.1,-0.1 h -6.2 c -0.055,0 -0.1,0.045 -0.1,0.1 v 3 c 0,0.1 0.1,0 0,0 h -6 c -0.1,0 0,0.1 0,0 v -3 c 0,-0.055 -0.045,-0.1 -0.1,-0.1 h -6.2 c -0.055,0 -0.1,0.045 -0.1,0.1 v 3 c 0,0.1 0.1,0 0,0 h -6 c -0.1,0 0,0.1 0,0 v -3 c 0,-0.055 -0.045,-0.1 -0.1,-0.1 h -6.2 c -0.055,0 -0.1,0.045 -0.1,0.1 v 3 c 0,0.1 0.1,0 0,0 h -6 c -0.1,0 0,0.1 0,0 v -3 c 0,-0.055 -0.045,-0.1 -0.1,-0.1 h -6.2 c -0.055,0 -0.1,0.045 -0.1,0.1 v 3 c 0,0.1 0.1,0 0,0 h -6 c -0.1,0 0,0.1 0,0 v -3 c 0,-0.055 -0.045,-0.1 -0.1,-0.1 H 101 c -0.055,0 -0.1,0.045 -0.1,0.1 v 3 c 0,0.1 0.1,0 0,0 h -6 c -0.1,0 0,0.1 0,0 v -3 c 0,-0.055 -0.045,-0.1 -0.1,-0.1 h -6.2 c -0.055,0 -0.1,0.045 -0.1,0.1 v 3 c 0,0.1 0.1,0 0,0 h -6 c -0.1,0 0,0.1 0,0 v -3 c 0,-0.055 -0.045,-0.1 -0.1,-0.1 h -6.2 c -0.055,0 -0.1,0.045 -0.1,0.1 v 3 c 0,0.1 0.1,0 0,0 h -6 c -0.1,0 0,0.1 0,0 v -3 c 0,-0.055 -0.045,-0.1 -0.1,-0.1 h -6.2 c -0.055,0 -0.1,0.045 -0.1,0.1 v 3 c 0,0.1 0.1,0 0,0 h -6 c -0.1,0 0,0.1 0,0 v -3 c 0,-0.055 -0.045,-0.1 -0.1,-0.1 h -6.2 c -0.055,0 -0.1,0.045 -0.1,0.1 v 3 c 0,0.1 0.1,0 0,0 h -6 c -0.1,0 0,0.1 0,0 v -3 c 0,-0.055 -0.045,-0.1 -0.1,-0.1 H 39 c -0.055,0 -0.1,0.045 -0.1,0.1 v 3 c 0,0.1 0.1,0 0,0 h -6 c -0.1,0 0,0.1 0,0 v -3 c 0,-0.055 -0.045,-0.1 -0.1,-0.1 h -6.2 c -0.055,0 -0.1,0.045 -0.1,0.1 v 3 c 0,0.1 0.1,0 0,0 h -6 c -0.1,0 0,0.1 0,0 v -3 c 0,-0.055 -0.045,-0.1 -0.1,-0.1 h -7.2 -3.1 c -0.055,0 -0.1,0.045 -0.1,0.1 v 3.1 11.05 c 0,0.055 0.045,0.1 0.1,0.1 h 3 c 0.1,0 0,-0.1 0,0 v 6 c 0,0.1 0.1,0 0,0 h -3 c -0.055,0 -0.1,0.045 -0.1,0.1 v 11.05 3.1 c 0,0.055 0.045,0.1 0.1,0.1 z"
       stroke="rgb(0,0,0)"
       stroke-width="0.20"
       id="path2"
       style="stroke:#ff0000;stroke-width:0.0254;stroke-dasharray:none" />
  </g>
  <g
     id="p-2"
     style="fill:none;stroke:#ff0000;stroke-width:0.0254;stroke-linecap:round;stroke-linejoin:round;stroke-dasharray:none"
     transform="translate(-180.5329,36.946269)">
    <path
       d="m 264.95,152.7 h 10.2 c 0.055,0 0.1,-0.045 0.1,-0.1 v -3 c 0,-0.1 -0.1,0 0,0 h 6 c 0.1,0 0,-0.1 0,0 v 3 c 0,0.055 0.045,0.1 0.1,0.1 h 6.2 c 0.055,0 0.1,-0.045 0.1,-0.1 v -3 c 0,-0.1 -0.1,0 0,0 h 6 c 0.1,0 0,-0.1 0,0 v 3 c 0,0.055 0.045,0.1 0.1,0.1 h 6.2 c 0.055,0 0.1,-0.045 0.1,-0.1 v -3 c 0,-0.1 -0.1,0 0,0 h 6 c 0.1,0 0,-0.1 0,0 v 3 c 0,0.055 0.045,0.1 0.1,0.1 h 6.2 c 0.055,0 0.1,-0.045 0.1,-0.1 v -3 c 0,-0.1 -0.1,0 0,0 h 6 c 0.1,0 0,-0.1 0,0 v 3 c 0,0.055 0.045,0.1 0.1,0.1 h 10.2 c 0.055,0 0.1,-0.045 0.1,-0.1 v -3.1 -10.95 c 0,-0.1 -0.1,0 0,0 h 3 c 0.055,0 0.1,-0.045 0.1,-0.1 v -6.2 c 0,-0.055 -0.045,-0.1 -0.1,-0.1 h -3 c -0.1,0 0,0.1 0,0 v -10.95 -3.1 c 0,-0.055 -0.045,-0.1 -0.1,-0.1 h -10.2 c -0.055,0 -0.1,0.045 -0.1,0.1 v 3 c 0,0.1 0.1,0 0,0 h -6 c -0.1,0 0,0.1 0,0 v -3 c 0,-0.055 -0.045,-0.1 -0.1,-0.1 h -6.2 c -0.055,0 -0.1,0.045 -0.1,0.1 v 3 c 0,0.1 0.1,0 0,0 h -6 c -0.1,0 0,0.1 0,0 v -3 c 0,-0.055 -0.045,-0.1 -0.1,-0.1 h -6.2 c -0.055,0 -0.1,0.045 -0.1,0.1 v 3 c 0,0.1 0.1,0 0,0 h -6 c -0.1,0 0,0.1 0,0 v -3 c 0,-0.055 -0.045,-0.1 -0.1,-0.1 h -6.2 c -0.055,0 -0.1,0.045 -0.1,0.1 v 3 c 0,0.1 0.1,0 0,0 h -6 c -0.1,0 0,0.1 0,0 v -3 c 0,-0.055 -0.045,-0.1 -0.1,-0.1 h -10.2 c -0.055,0 -0.1,0.045 -0.1,0.1 v 3.1 10.95 c 0,0.1 0.1,0 0,0 h -3 c -0.055,0 -0.1,0.045 -0.1,0.1 v 6.2 c 0,0.055 0.045,0.1 0.1,0.1 h 3 c 0.1,0 0,-0.1 0,0 v 10.95 3.1 c 0,0.055 0.045,0.1 0.1,0.1 z"
       stroke="rgb(0,0,0)"
       stroke-width="0.20"
       id="path3"
       style="stroke:#ff0000;stroke-width:0.0254;stroke-dasharray:none" />
  </g>
  <g
     id="p-3"
     style="fill:none;stroke:#ff0000;stroke-width:0.0254;stroke-linecap:round;stroke-linejoin:round;stroke-dasharray:none"
     transform="translate(-254.76132,72.884912)">
    <path
       d="m 264.95,116.45 h 10.2 c 0.055,0 0.1,-0.045 0.1,-0.1 v -3 c 0,-0.1 -0.1,0 0,0 h 6 c 0.1,0 0,-0.1 0,0 v 3 c 0,0.055 0.045,0.1 0.1,0.1 h 6.2 c 0.055,0 0.1,-0.045 0.1,-0.1 v -3 c 0,-0.1 -0.1,0 0,0 h 6 c 0.1,0 0,-0.1 0,0 v 3 c 0,0.055 0.045,0.1 0.1,0.1 h 6.2 c 0.055,0 0.1,-0.045 0.1,-0.1 v -3 c 0,-0.1 -0.1,0 0,0 h 6 c 0.1,0 0,-0.1 0,0 v 3 c 0,0.055 0.045,0.1 0.1,0.1 h 6.2 c 0.055,0 0.1,-0.045 0.1,-0.1 v -3 c 0,-0.1 -0.1,0 0,0 h 6 c 0.1,0 0,-0.1 0,0 v 3 c 0,0.055 0.045,0.1 0.1,0.1 h 10.2 c 0.055,0 0.1,-0.045 0.1,-0.1 v -3.1 -10.95 c 0,-0.1 -0.1,0 0,0 h 3 c 0.055,0 0.1,-0.045 0.1,-0.1 V 96 c 0,-0.055 -0.045,-0.1 -0.1,-0.1 h -3 c -0.1,0 0,0.1 0,0 v -10.95 -3.1 c 0,-0.055 -0.045,-0.1 -0.1,-0.1 h -10.2 c -0.055,0 -0.1,0.045 -0.1,0.1 v 3 c 0,0.1 0.1,0 0,0 h -6 c -0.1,0 0,0.1 0,0 v -3 c 0,-0.055 -0.045,-0.1 -0.1,-0.1 h -6.2 c -0.055,0 -0.1,0.045 -0.1,0.1 v 3 c 0,0.1 0.1,0 0,0 h -6 c -0.1,0 0,0.1 0,0 v -3 c 0,-0.055 -0.045,-0.1 -0.1,-0.1 h -6.2 c -0.055,0 -0.1,0.045 -0.1,0.1 v 3 c 0,0.1 0.1,0 0,0 h -6 c -0.1,0 0,0.1 0,0 v -3 c 0,-0.055 -0.045,-0.1 -0.1,-0.1 h -6.2 c -0.055,0 -0.1,0.045 -0.1,0.1 v 3 c 0,0.1 0.1,0 0,0 h -6 c -0.1,0 0,0.1 0,0 v -3 c 0,-0.055 -0.045,-0.1 -0.1,-0.1 h -10.2 c -0.055,0 -0.1,0.045 -0.1,0.1 v 3.1 10.95 c 0,0.1 0.1,0 0,0 h -3 c -0.055,0 -0.1,0.045 -0.1,0.1 v 6.2 c 0,0.055 0.045,0.1 0.1,0.1 h 3 c 0.1,0 0,-0.1 0,0 v 10.95 3.1 c 0,0.055 0.045,0.1 0.1,0.1 z"
       stroke="rgb(0,0,0)"
       stroke-width="0.20"
       id="path4"
       style="stroke:#ff0000;stroke-width:0.0254;stroke-dasharray:none" />
  </g>
  <g
     id="p-4"
     style="fill:none;stroke:#ff0000;stroke-width:0.0254;stroke-linecap:round;stroke-linejoin:round;stroke-dasharray:none">
    <path
       d="m 13.2,116.45 h 7.2 c 0.055,0 0.1,-0.045 0.1,-0.1 v -3 c 0,-0.1 -0.1,0 0,0 h 6 c 0.1,0 0,-0.1 0,0 v 3 c 0,0.055 0.045,0.1 0.1,0.1 h 6.2 c 0.055,0 0.1,-0.045 0.1,-0.1 v -3 c 0,-0.1 -0.1,0 0,0 h 6 c 0.1,0 0,-0.1 0,0 v 3 c 0,0.055 0.045,0.1 0.1,0.1 h 6.2 c 0.055,0 0.1,-0.045 0.1,-0.1 v -3 c 0,-0.1 -0.1,0 0,0 h 6 c 0.1,0 0,-0.1 0,0 v 3 c 0,0.055 0.045,0.1 0.1,0.1 h 6.2 c 0.055,0 0.1,-0.045 0.1,-0.1 v -3 c 0,-0.1 -0.1,0 0,0 h 6 c 0.1,0 0,-0.1 0,0 v 3 c 0,0.055 0.045,0.1 0.1,0.1 H 70 c 0.055,0 0.1,-0.045 0.1,-0.1 v -3 c 0,-0.1 -0.1,0 0,0 h 6 c 0.1,0 0,-0.1 0,0 v 3 c 0,0.055 0.045,0.1 0.1,0.1 h 6.2 c 0.055,0 0.1,-0.045 0.1,-0.1 v -3 c 0,-0.1 -0.1,0 0,0 h 6 c 0.1,0 0,-0.1 0,0 v 3 c 0,0.055 0.045,0.1 0.1,0.1 h 6.2 c 0.055,0 0.1,-0.045 0.1,-0.1 v -3 c 0,-0.1 -0.1,0 0,0 h 6 c 0.1,0 0,-0.1 0,0 v 3 c 0,0.055 0.045,0.1 0.1,0.1 h 6.2 c 0.055,0 0.1,-0.045 0.1,-0.1 v -3 c 0,-0.1 -0.1,0 0,0 h 6 c 0.1,0 0,-0.1 0,0 v 3 c 0,0.055 0.045,0.1 0.1,0.1 h 6.2 c 0.055,0 0.1,-0.045 0.1,-0.1 v -3 c 0,-0.1 -0.1,0 0,0 h 6 c 0.1,0 0,-0.1 0,0 v 3 c 0,0.055 0.045,0.1 0.1,0.1 h 6.2 c 0.055,0 0.1,-0.045 0.1,-0.1 v -3 c 0,-0.1 -0.1,0 0,0 h 6 c 0.1,0 0,-0.1 0,0 v 3 c 0,0.055 0.045,0.1 0.1,0.1 h 6.2 c 0.055,0 0.1,-0.045 0.1,-0.1 v -3 c 0,-0.1 -0.1,0 0,0 h 6 c 0.1,0 0,-0.1 0,0 v 3 c 0,0.055 0.045,0.1 0.1,0.1 h 6.2 c 0.055,0 0.1,-0.045 0.1,-0.1 v -3 c 0,-0.1 -0.1,0 0,0 h 6 c 0.1,0 0,-0.1 0,0 v 3 c 0,0.055 0.045,0.1 0.1,0.1 h 6.2 c 0.055,0 0.1,-0.045 0.1,-0.1 v -3 c 0,-0.1 -0.1,0 0,0 h 6 c 0.1,0 0,-0.1 0,0 v 3 c 0,0.055 0.045,0.1 0.1,0.1 h 6.2 c 0.055,0 0.1,-0.045 0.1,-0.1 v -3 c 0,-0.1 -0.1,0 0,0 h 6 c 0.1,0 0,-0.1 0,0 v 3 c 0,0.055 0.045,0.1 0.1,0.1 h 6.2 c 0.055,0 0.1,-0.045 0.1,-0.1 v -3 c 0,-0.1 -0.1,0 0,0 h 6 c 0.1,0 0,-0.1 0,0 v 3 c 0,0.055 0.045,0.1 0.1,0.1 h 6.2 c 0.055,0 0.1,-0.045 0.1,-0.1 v -3 c 0,-0.1 -0.1,0 0,0 h 6 c 0.1,0 0,-0.1 0,0 v 3 c 0,0.055 0.045,0.1 0.1,0.1 h 6.2 c 0.055,0 0.1,-0.045 0.1,-0.1 v -3 c 0,-0.1 -0.1,0 0,0 h 6 c 0.1,0 0,-0.1 0,0 v 3 c 0,0.055 0.045,0.1 0.1,0.1 h 6.2 c 0.055,0 0.1,-0.045 0.1,-0.1 v -3 c 0,-0.1 -0.1,0 0,0 h 6 c 0.1,0 0,-0.1 0,0 v 3 c 0,0.055 0.045,0.1 0.1,0.1 h 6.2 c 0.055,0 0.1,-0.045 0.1,-0.1 v -3 c 0,-0.1 -0.1,0 0,0 h 6 c 0.1,0 0,-0.1 0,0 v 3 c 0,0.055 0.045,0.1 0.1,0.1 h 7.2 3.1 c 0.055,0 0.1,-0.045 0.1,-0.1 v -3.1 -11.05 c 0,-0.055 -0.045,-0.1 -0.1,-0.1 h -3 c -0.1,0 0,0.1 0,0 v -6 c 0,-0.1 -0.1,0 0,0 h 3 c 0.055,0 0.1,-0.045 0.1,-0.1 v -11.05 -3.1 c 0,-0.055 -0.045,-0.1 -0.1,-0.1 h -3.1 -7.2 c -0.055,0 -0.1,0.045 -0.1,0.1 v 3 c 0,0.1 0.1,0 0,0 h -6 c -0.1,0 0,0.1 0,0 v -3 c 0,-0.055 -0.045,-0.1 -0.1,-0.1 h -6.2 c -0.055,0 -0.1,0.045 -0.1,0.1 v 3 c 0,0.1 0.1,0 0,0 h -6 c -0.1,0 0,0.1 0,0 v -3 c 0,-0.055 -0.045,-0.1 -0.1,-0.1 H 225 c -0.055,0 -0.1,0.045 -0.1,0.1 v 3 c 0,0.1 0.1,0 0,0 h -6 c -0.1,0 0,0.1 0,0 v -3 c 0,-0.055 -0.045,-0.1 -0.1,-0.1 h -6.2 c -0.055,0 -0.1,0.045 -0.1,0.1 v 3 c 0,0.1 0.1,0 0,0 h -6 c -0.1,0 0,0.1 0,0 v -3 c 0,-0.055 -0.045,-0.1 -0.1,-0.1 h -6.2 c -0.055,0 -0.1,0.045 -0.1,0.1 v 3 c 0,0.1 0.1,0 0,0 h -6 c -0.1,0 0,0.1 0,0 v -3 c 0,-0.055 -0.045,-0.1 -0.1,-0.1 h -6.2 c -0.055,0 -0.1,0.045 -0.1,0.1 v 3 c 0,0.1 0.1,0 0,0 h -6 c -0.1,0 0,0.1 0,0 v -3 c 0,-0.055 -0.045,-0.1 -0.1,-0.1 h -6.2 c -0.055,0 -0.1,0.045 -0.1,0.1 v 3 c 0,0.1 0.1,0 0,0 h -6 c -0.1,0 0,0.1 0,0 v -3 c 0,-0.055 -0.045,-0.1 -0.1,-0.1 H 163 c -0.055,0 -0.1,0.045 -0.1,0.1 v 3 c 0,0.1 0.1,0 0,0 h -6 c -0.1,0 0,0.1 0,0 v -3 c 0,-0.055 -0.045,-0.1 -0.1,-0.1 h -6.2 c -0.055,0 -0.1,0.045 -0.1,0.1 v 3 c 0,0.1 0.1,0 0,0 h -6 c -0.1,0 0,0.1 0,0 v -3 c 0,-0.055 -0.045,-0.1 -0.1,-0.1 h -6.2 c -0.055,0 -0.1,0.045 -0.1,0.1 v 3 c 0,0.1 0.1,0 0,0 h -6 c -0.1,0 0,0.1 0,0 v -3 c 0,-0.055 -0.045,-0.1 -0.1,-0.1 h -6.2 c -0.055,0 -0.1,0.045 -0.1,0.1 v 3 c 0,0.1 0.1,0 0,0 h -6 c -0.1,0 0,0.1 0,0 v -3 c 0,-0.055 -0.045,-0.1 -0.1,-0.1 h -6.2 c -0.055,0 -0.1,0.045 -0.1,0.1 v 3 c 0,0.1 0.1,0 0,0 h -6 c -0.1,0 0,0.1 0,0 v -3 c 0,-0.055 -0.045,-0.1 -0.1,-0.1 H 101 c -0.055,0 -0.1,0.045 -0.1,0.1 v 3 c 0,0.1 0.1,0 0,0 h -6 c -0.1,0 0,0.1 0,0 v -3 c 0,-0.055 -0.045,-0.1 -0.1,-0.1 h -6.2 c -0.055,0 -0.1,0.045 -0.1,0.1 v 3 c 0,0.1 0.1,0 0,0 h -6 c -0.1,0 0,0.1 0,0 v -3 c 0,-0.055 -0.045,-0.1 -0.1,-0.1 h -6.2 c -0.055,0 -0.1,0.045 -0.1,0.1 v 3 c 0,0.1 0.1,0 0,0 h -6 c -0.1,0 0,0.1 0,0 v -3 c 0,-0.055 -0.045,-0.1 -0.1,-0.1 h -6.2 c -0.055,0 -0.1,0.045 -0.1,0.1 v 3 c 0,0.1 0.1,0 0,0 h -6 c -0.1,0 0,0.1 0,0 v -3 c 0,-0.055 -0.045,-0.1 -0.1,-0.1 h -6.2 c -0.055,0 -0.1,0.045 -0.1,0.1 v 3 c 0,0.1 0.1,0 0,0 h -6 c -0.1,0 0,0.1 0,0 v -3 c 0,-0.055 -0.045,-0.1 -0.1,-0.1 H 39 c -0.055,0 -0.1,0.045 -0.1,0.1 v 3 c 0,0.1 0.1,0 0,0 h -6 c -0.1,0 0,0.1 0,0 v -3 c 0,-0.055 -0.045,-0.1 -0.1,-0.1 h -6.2 c -0.055,0 -0.1,0.045 -0.1,0.1 v 3 c 0,0.1 0.1,0 0,0 h -6 c -0.1,0 0,0.1 0,0 v -3 c 0,-0.055 -0.045,-0.1 -0.1,-0.1 h -7.2 -3.1 c -0.055,0 -0.1,0.045 -0.1,0.1 V 84.95 96 c 0,0.055 0.045,0.1 0.1,0.1 h 3 c 0.1,0 0,-0.1 0,0 v 6 c 0,0.1 0.1,0 0,0 h -3 c -0.055,0 -0.1,0.045 -0.1,0.1 v 11.05 3.1 c 0,0.055 0.045,0.1 0.1,0.1 z"
       stroke="rgb(0,0,0)"
       stroke-width="0.20"
       id="path5"
       style="stroke:#ff0000;stroke-width:0.0254;stroke-dasharray:none" />
  </g>
  <g
     id="p-5"
     style="fill:none;stroke:#ff0000;stroke-width:0.0254;stroke-linecap:round;stroke-linejoin:round;stroke-dasharray:none"
     transform="translate(-8.1948191e-5)">
    <path
       d="m 13.2,77.1 h 7.1 c 0.1,0 0,-0.1 0,0 v 3 c 0,0.055 0.045,0.1 0.1,0.1 h 6.2 c 0.055,0 0.1,-0.045 0.1,-0.1 v -3 c 0,-0.1 -0.1,0 0,0 h 6 c 0.1,0 0,-0.1 0,0 v 3 c 0,0.055 0.045,0.1 0.1,0.1 H 39 c 0.055,0 0.1,-0.045 0.1,-0.1 v -3 c 0,-0.1 -0.1,0 0,0 h 6 c 0.1,0 0,-0.1 0,0 v 3 c 0,0.055 0.045,0.1 0.1,0.1 h 6.2 c 0.055,0 0.1,-0.045 0.1,-0.1 v -3 c 0,-0.1 -0.1,0 0,0 h 6 c 0.1,0 0,-0.1 0,0 v 3 c 0,0.055 0.045,0.1 0.1,0.1 h 6.2 c 0.055,0 0.1,-0.045 0.1,-0.1 v -3 c 0,-0.1 -0.1,0 0,0 h 6 c 0.1,0 0,-0.1 0,0 v 3 c 0,0.055 0.045,0.1 0.1,0.1 h 6.2 c 0.055,0 0.1,-0.045 0.1,-0.1 v -3 c 0,-0.1 -0.1,0 0,0 h 6 c 0.1,0 0,-0.1 0,0 v 3 c 0,0.055 0.045,0.1 0.1,0.1 h 6.2 c 0.055,0 0.1,-0.045 0.1,-0.1 v -3 c 0,-0.1 -0.1,0 0,0 h 6 c 0.1,0 0,-0.1 0,0 v 3 c 0,0.055 0.045,0.1 0.1,0.1 h 6.2 c 0.055,0 0.1,-0.045 0.1,-0.1 v -3 c 0,-0.1 -0.1,0 0,0 h 6 c 0.1,0 0,-0.1 0,0 v 3 c 0,0.055 0.045,0.1 0.1,0.1 h 6.2 c 0.055,0 0.1,-0.045 0.1,-0.1 v -3 c 0,-0.1 -0.1,0 0,0 h 6 c 0.1,0 0,-0.1 0,0 v 3 c 0,0.055 0.045,0.1 0.1,0.1 h 6.2 c 0.055,0 0.1,-0.045 0.1,-0.1 v -3 c 0,-0.1 -0.1,0 0,0 h 6 c 0.1,0 0,-0.1 0,0 v 3 c 0,0.055 0.045,0.1 0.1,0.1 h 6.2 c 0.055,0 0.1,-0.045 0.1,-0.1 v -3 c 0,-0.1 -0.1,0 0,0 h 6 c 0.1,0 0,-0.1 0,0 v 3 c 0,0.055 0.045,0.1 0.1,0.1 h 6.2 c 0.055,0 0.1,-0.045 0.1,-0.1 v -3 c 0,-0.1 -0.1,0 0,0 h 6 c 0.1,0 0,-0.1 0,0 v 3 c 0,0.055 0.045,0.1 0.1,0.1 h 6.2 c 0.055,0 0.1,-0.045 0.1,-0.1 v -3 c 0,-0.1 -0.1,0 0,0 h 6 c 0.1,0 0,-0.1 0,0 v 3 c 0,0.055 0.045,0.1 0.1,0.1 h 6.2 c 0.055,0 0.1,-0.045 0.1,-0.1 v -3 c 0,-0.1 -0.1,0 0,0 h 6 c 0.1,0 0,-0.1 0,0 v 3 c 0,0.055 0.045,0.1 0.1,0.1 h 6.2 c 0.055,0 0.1,-0.045 0.1,-0.1 v -3 c 0,-0.1 -0.1,0 0,0 h 6 c 0.1,0 0,-0.1 0,0 v 3 c 0,0.055 0.045,0.1 0.1,0.1 h 6.2 c 0.055,0 0.1,-0.045 0.1,-0.1 v -3 c 0,-0.1 -0.1,0 0,0 h 6 c 0.1,0 0,-0.1 0,0 v 3 c 0,0.055 0.045,0.1 0.1,0.1 h 6.2 c 0.055,0 0.1,-0.045 0.1,-0.1 v -3 c 0,-0.1 -0.1,0 0,0 h 6 c 0.1,0 0,-0.1 0,0 v 3 c 0,0.055 0.045,0.1 0.1,0.1 h 6.2 c 0.055,0 0.1,-0.045 0.1,-0.1 v -3 c 0,-0.1 -0.1,0 0,0 h 6 c 0.1,0 0,-0.1 0,0 v 3 c 0,0.055 0.045,0.1 0.1,0.1 h 6.2 c 0.055,0 0.1,-0.045 0.1,-0.1 v -3 c 0,-0.1 -0.1,0 0,0 h 6 c 0.1,0 0,-0.1 0,0 v 3 c 0,0.055 0.045,0.1 0.1,0.1 h 6.2 c 0.055,0 0.1,-0.045 0.1,-0.1 v -3 c 0,-0.1 -0.1,0 0,0 h 7.1 c 0.055,0 0.1,-0.045 0.1,-0.1 V 66.9 c 0,-0.1 -0.1,0 0,0 h 3 c 0.055,0 0.1,-0.045 0.1,-0.1 v -6.2 c 0,-0.055 -0.045,-0.1 -0.1,-0.1 h -3 c -0.1,0 0,0.1 0,0 v -6 c 0,-0.1 -0.1,0 0,0 h 3 c 0.055,0 0.1,-0.045 0.1,-0.1 v -6.2 c 0,-0.055 -0.045,-0.1 -0.1,-0.1 h -3 c -0.1,0 0,0.1 0,0 v -6 c 0,-0.1 -0.1,0 0,0 h 3 c 0.055,0 0.1,-0.045 0.1,-0.1 v -6.2 c 0,-0.055 -0.045,-0.1 -0.1,-0.1 h -3 c -0.1,0 0,0.1 0,0 v -6 c 0,-0.1 -0.1,0 0,0 h 3 c 0.055,0 0.1,-0.045 0.1,-0.1 v -6.2 c 0,-0.055 -0.045,-0.1 -0.1,-0.1 h -3 c -0.1,0 0,0.1 0,0 V 13.2 c 0,-0.055 -0.045,-0.1 -0.1,-0.1 h -7.1 c -0.1,0 0,0.1 0,0 v -3 c 0,-0.055 -0.045,-0.1 -0.1,-0.1 h -6.2 c -0.055,0 -0.1,0.045 -0.1,0.1 v 3 c 0,0.1 0.1,0 0,0 h -6 c -0.1,0 0,0.1 0,0 v -3 c 0,-0.055 -0.045,-0.1 -0.1,-0.1 h -6.2 c -0.055,0 -0.1,0.045 -0.1,0.1 v 3 c 0,0.1 0.1,0 0,0 h -6 c -0.1,0 0,0.1 0,0 v -3 c 0,-0.055 -0.045,-0.1 -0.1,-0.1 h -6.2 c -0.055,0 -0.1,0.045 -0.1,0.1 v 3 c 0,0.1 0.1,0 0,0 h -6 c -0.1,0 0,0.1 0,0 v -3 c 0,-0.055 -0.045,-0.1 -0.1,-0.1 h -6.2 c -0.055,0 -0.1,0.045 -0.1,0.1 v 3 c 0,0.1 0.1,0 0,0 h -6 c -0.1,0 0,0.1 0,0 v -3 c 0,-0.055 -0.045,-0.1 -0.1,-0.1 H 194 c -0.055,0 -0.1,0.045 -0.1,0.1 v 3 c 0,0.1 0.1,0 0,0 h -6 c -0.1,0 0,0.1 0,0 v -3 c 0,-0.055 -0.045,-0.1 -0.1,-0.1 h -6.2 c -0.055,0 -0.1,0.045 -0.1,0.1 v 3 c 0,0.1 0.1,0 0,0 h -6 c -0.1,0 0,0.1 0,0 v -3 c 0,-0.055 -0.045,-0.1 -0.1,-0.1 h -6.2 c -0.055,0 -0.1,0.045 -0.1,0.1 v 3 c 0,0.1 0.1,0 0,0 h -6 c -0.1,0 0,0.1 0,0 v -3 c 0,-0.055 -0.045,-0.1 -0.1,-0.1 h -6.2 c -0.055,0 -0.1,0.045 -0.1,0.1 v 3 c 0,0.1 0.1,0 0,0 h -6 c -0.1,0 0,0.1 0,0 v -3 c 0,-0.055 -0.045,-0.1 -0.1,-0.1 h -6.2 c -0.055,0 -0.1,0.045 -0.1,0.1 v 3 c 0,0.1 0.1,0 0,0 h -6 c -0.1,0 0,0.1 0,0 v -3 c 0,-0.055 -0.045,-0.1 -0.1,-0.1 H 132 c -0.055,0 -0.1,0.045 -0.1,0.1 v 3 c 0,0.1 0.1,0 0,0 h -6 c -0.1,0 0,0.1 0,0 v -3 c 0,-0.055 -0.045,-0.1 -0.1,-0.1 h -6.2 c -0.055,0 -0.1,0.045 -0.1,0.1 v 3 c 0,0.1 0.1,0 0,0 h -6 c -0.1,0 0,0.1 0,0 v -3 c 0,-0.055 -0.045,-0.1 -0.1,-0.1 h -6.2 c -0.055,0 -0.1,0.045 -0.1,0.1 v 3 c 0,0.1 0.1,0 0,0 h -6 c -0.1,0 0,0.1 0,0 v -3 c 0,-0.055 -0.045,-0.1 -0.1,-0.1 h -6.2 c -0.055,0 -0.1,0.045 -0.1,0.1 v 3 c 0,0.1 0.1,0 0,0 h -6 c -0.1,0 0,0.1 0,0 v -3 C 88.7,10.045 88.655,10 88.6,10 h -6.2 c -0.055,0 -0.1,0.045 -0.1,0.1 v 3 c 0,0.1 0.1,0 0,0 h -6 c -0.1,0 0,0.1 0,0 v -3 C 76.3,10.045 76.255,10 76.2,10 H 70 c -0.055,0 -0.1,0.045 -0.1,0.1 v 3 c 0,0.1 0.1,0 0,0 h -6 c -0.1,0 0,0.1 0,0 v -3 C 63.9,10.045 63.855,10 63.8,10 h -6.2 c -0.055,0 -0.1,0.045 -0.1,0.1 v 3 c 0,0.1 0.1,0 0,0 h -6 c -0.1,0 0,0.1 0,0 v -3 C 51.5,10.045 51.455,10 51.4,10 h -6.2 c -0.055,0 -0.1,0.045 -0.1,0.1 v 3 c 0,0.1 0.1,0 0,0 h -6 c -0.1,0 0,0.1 0,0 v -3 C 39.1,10.045 39.055,10 39,10 h -6.2 c -0.055,0 -0.1,0.045 -0.1,0.1 v 3 c 0,0.1 0.1,0 0,0 h -6 c -0.1,0 0,0.1 0,0 v -3 C 26.7,10.045 26.655,10 26.6,10 h -6.2 c -0.055,0 -0.1,0.045 -0.1,0.1 v 3 c 0,0.1 0.1,0 0,0 h -7.1 c -0.055,0 -0.1,0.045 -0.1,0.1 v 10.1 c 0,0.1 0.1,0 0,0 h -3 c -0.055,0 -0.1,0.045 -0.1,0.1 v 6.2 c 0,0.055 0.045,0.1 0.1,0.1 h 3 c 0.1,0 0,-0.1 0,0 v 6 c 0,0.1 0.1,0 0,0 h -3 c -0.055,0 -0.1,0.045 -0.1,0.1 V 42 c 0,0.055 0.045,0.1 0.1,0.1 h 3 c 0.1,0 0,-0.1 0,0 v 6 c 0,0.1 0.1,0 0,0 h -3 c -0.055,0 -0.1,0.045 -0.1,0.1 v 6.2 c 0,0.055 0.045,0.1 0.1,0.1 h 3 c 0.1,0 0,-0.1 0,0 v 6 c 0,0.1 0.1,0 0,0 h -3 c -0.055,0 -0.1,0.045 -0.1,0.1 v 6.2 c 0,0.055 0.045,0.1 0.1,0.1 h 3 c 0.1,0 0,-0.1 0,0 V 77 c 0,0.055 0.045,0.1 0.1,0.1 z"
       stroke="rgb(0,0,0)"
       stroke-width="0.20"
       id="path6"
       style="stroke:#ff0000;stroke-width:0.0254;stroke-dasharray:none" />
  </g>
  <g
     id="p-6"
     style="fill:none;stroke:#ff0000;stroke-width:0.0254;stroke-linecap:round;stroke-linejoin:round;stroke-dasharray:none"
     transform="translate(-252.914,181.70847)">
    <path
       d="m 264.95,77.1 h 7.1 c 0.1,0 0,-0.1 0,0 v 3 c 0,0.055 0.045,0.1 0.1,0.1 h 6.2 c 0.055,0 0.1,-0.045 0.1,-0.1 v -3 c 0,-0.1 -0.1,0 0,0 h 6 c 0.1,0 0,-0.1 0,0 v 3 c 0,0.055 0.045,0.1 0.1,0.1 h 6.2 c 0.055,0 0.1,-0.045 0.1,-0.1 v -3 c 0,-0.1 -0.1,0 0,0 h 6 c 0.1,0 0,-0.1 0,0 v 3 c 0,0.055 0.045,0.1 0.1,0.1 h 6.2 c 0.055,0 0.1,-0.045 0.1,-0.1 v -3 c 0,-0.1 -0.1,0 0,0 h 6 c 0.1,0 0,-0.1 0,0 v 3 c 0,0.055 0.045,0.1 0.1,0.1 h 6.2 c 0.055,0 0.1,-0.045 0.1,-0.1 v -3 c 0,-0.1 -0.1,0 0,0 h 6 c 0.1,0 0,-0.1 0,0 v 3 c 0,0.055 0.045,0.1 0.1,0.1 h 6.2 c 0.055,0 0.1,-0.045 0.1,-0.1 v -3 c 0,-0.1 -0.1,0 0,0 h 6 c 0.1,0 0,-0.1 0,0 v 3 c 0,0.055 0.045,0.1 0.1,0.1 h 6.2 c 0.055,0 0.1,-0.045 0.1,-0.1 v -3 c 0,-0.1 -0.1,0 0,0 h 6 c 0.1,0 0,-0.1 0,0 v 3 c 0,0.055 0.045,0.1 0.1,0.1 h 6.2 c 0.055,0 0.1,-0.045 0.1,-0.1 v -3 c 0,-0.1 -0.1,0 0,0 h 6 c 0.1,0 0,-0.1 0,0 v 3 c 0,0.055 0.045,0.1 0.1,0.1 h 6.2 c 0.055,0 0.1,-0.045 0.1,-0.1 v -3 c 0,-0.1 -0.1,0 0,0 h 6 c 0.1,0 0,-0.1 0,0 v 3 c 0,0.055 0.045,0.1 0.1,0.1 h 6.2 c 0.055,0 0.1,-0.045 0.1,-0.1 v -3 c 0,-0.1 -0.1,0 0,0 h 6 c 0.1,0 0,-0.1 0,0 v 3 c 0,0.055 0.045,0.1 0.1,0.1 h 6.2 c 0.055,0 0.1,-0.045 0.1,-0.1 v -3 c 0,-0.1 -0.1,0 0,0 h 6 c 0.1,0 0,-0.1 0,0 v 3 c 0,0.055 0.045,0.1 0.1,0.1 h 6.2 c 0.055,0 0.1,-0.045 0.1,-0.1 v -3 c 0,-0.1 -0.1,0 0,0 h 6 c 0.1,0 0,-0.1 0,0 v 3 c 0,0.055 0.045,0.1 0.1,0.1 h 6.2 c 0.055,0 0.1,-0.045 0.1,-0.1 v -3 c 0,-0.1 -0.1,0 0,0 h 6 c 0.1,0 0,-0.1 0,0 v 3 c 0,0.055 0.045,0.1 0.1,0.1 h 6.2 c 0.055,0 0.1,-0.045 0.1,-0.1 v -3 c 0,-0.1 -0.1,0 0,0 h 6 c 0.1,0 0,-0.1 0,0 v 3 c 0,0.055 0.045,0.1 0.1,0.1 h 6.2 c 0.055,0 0.1,-0.045 0.1,-0.1 v -3 c 0,-0.1 -0.1,0 0,0 h 6 c 0.1,0 0,-0.1 0,0 v 3 c 0,0.055 0.045,0.1 0.1,0.1 h 6.2 c 0.055,0 0.1,-0.045 0.1,-0.1 v -3 c 0,-0.1 -0.1,0 0,0 h 6 c 0.1,0 0,-0.1 0,0 v 3 c 0,0.055 0.045,0.1 0.1,0.1 h 6.2 c 0.055,0 0.1,-0.045 0.1,-0.1 v -3 c 0,-0.1 -0.1,0 0,0 h 6 c 0.1,0 0,-0.1 0,0 v 3 c 0,0.055 0.045,0.1 0.1,0.1 h 6.2 c 0.055,0 0.1,-0.045 0.1,-0.1 v -3 c 0,-0.1 -0.1,0 0,0 h 6 c 0.1,0 0,-0.1 0,0 v 3 c 0,0.055 0.045,0.1 0.1,0.1 h 6.2 c 0.055,0 0.1,-0.045 0.1,-0.1 v -3 c 0,-0.1 -0.1,0 0,0 h 6 c 0.1,0 0,-0.1 0,0 v 3 c 0,0.055 0.045,0.1 0.1,0.1 h 6.2 c 0.055,0 0.1,-0.045 0.1,-0.1 v -3 c 0,-0.1 -0.1,0 0,0 h 7.1 c 0.055,0 0.1,-0.045 0.1,-0.1 V 66.9 c 0,-0.1 -0.1,0 0,0 h 3 c 0.055,0 0.1,-0.045 0.1,-0.1 v -6.2 c 0,-0.055 -0.045,-0.1 -0.1,-0.1 h -3 c -0.1,0 0,0.1 0,0 v -6 c 0,-0.1 -0.1,0 0,0 h 3 c 0.055,0 0.1,-0.045 0.1,-0.1 v -6.2 c 0,-0.055 -0.045,-0.1 -0.1,-0.1 h -3 c -0.1,0 0,0.1 0,0 v -6 c 0,-0.1 -0.1,0 0,0 h 3 c 0.055,0 0.1,-0.045 0.1,-0.1 v -6.2 c 0,-0.055 -0.045,-0.1 -0.1,-0.1 h -3 c -0.1,0 0,0.1 0,0 v -6 c 0,-0.1 -0.1,0 0,0 h 3 c 0.055,0 0.1,-0.045 0.1,-0.1 v -6.2 c 0,-0.055 -0.045,-0.1 -0.1,-0.1 h -3 c -0.1,0 0,0.1 0,0 V 13.2 c 0,-0.055 -0.045,-0.1 -0.1,-0.1 h -7.1 c -0.1,0 0,0.1 0,0 v -3 c 0,-0.055 -0.045,-0.1 -0.1,-0.1 h -6.2 c -0.055,0 -0.1,0.045 -0.1,0.1 v 3 c 0,0.1 0.1,0 0,0 h -6 c -0.1,0 0,0.1 0,0 v -3 c 0,-0.055 -0.045,-0.1 -0.1,-0.1 h -6.2 c -0.055,0 -0.1,0.045 -0.1,0.1 v 3 c 0,0.1 0.1,0 0,0 h -6 c -0.1,0 0,0.1 0,0 v -3 c 0,-0.055 -0.045,-0.1 -0.1,-0.1 h -6.2 c -0.055,0 -0.1,0.045 -0.1,0.1 v 3 c 0,0.1 0.1,0 0,0 h -6 c -0.1,0 0,0.1 0,0 v -3 c 0,-0.055 -0.045,-0.1 -0.1,-0.1 h -6.2 c -0.055,0 -0.1,0.045 -0.1,0.1 v 3 c 0,0.1 0.1,0 0,0 h -6 c -0.1,0 0,0.1 0,0 v -3 c 0,-0.055 -0.045,-0.1 -0.1,-0.1 h -6.2 c -0.055,0 -0.1,0.045 -0.1,0.1 v 3 c 0,0.1 0.1,0 0,0 h -6 c -0.1,0 0,0.1 0,0 v -3 c 0,-0.055 -0.045,-0.1 -0.1,-0.1 h -6.2 c -0.055,0 -0.1,0.045 -0.1,0.1 v 3 c 0,0.1 0.1,0 0,0 h -6 c -0.1,0 0,0.1 0,0 v -3 c 0,-0.055 -0.045,-0.1 -0.1,-0.1 h -6.2 c -0.055,0 -0.1,0.045 -0.1,0.1 v 3 c 0,0.1 0.1,0 0,0 h -6 c -0.1,0 0,0.1 0,0 v -3 c 0,-0.055 -0.045,-0.1 -0.1,-0.1 h -6.2 c -0.055,0 -0.1,0.045 -0.1,0.1 v 3 c 0,0.1 0.1,0 0,0 h -6 c -0.1,0 0,0.1 0,0 v -3 c 0,-0.055 -0.045,-0.1 -0.1,-0.1 h -6.2 c -0.055,0 -0.1,0.045 -0.1,0.1 v 3 c 0,0.1 0.1,0 0,0 h -6 c -0.1,0 0,0.1 0,0 v -3 c 0,-0.055 -0.045,-0.1 -0.1,-0.1 h -6.2 c -0.055,0 -0.1,0.045 -0.1,0.1 v 3 c 0,0.1 0.1,0 0,0 h -6 c -0.1,0 0,0.1 0,0 v -3 c 0,-0.055 -0.045,-0.1 -0.1,-0.1 h -6.2 c -0.055,0 -0.1,0.045 -0.1,0.1 v 3 c 0,0.1 0.1,0 0,0 h -6 c -0.1,0 0,0.1 0,0 v -3 c 0,-0.055 -0.045,-0.1 -0.1,-0.1 h -6.2 c -0.055,0 -0.1,0.045 -0.1,0.1 v 3 c 0,0.1 0.1,0 0,0 h -6 c -0.1,0 0,0.1 0,0 v -3 c 0,-0.055 -0.045,-0.1 -0.1,-0.1 h -6.2 c -0.055,0 -0.1,0.045 -0.1,0.1 v 3 c 0,0.1 0.1,0 0,0 h -6 c -0.1,0 0,0.1 0,0 v -3 c 0,-0.055 -0.045,-0.1 -0.1,-0.1 h -6.2 c -0.055,0 -0.1,0.045 -0.1,0.1 v 3 c 0,0.1 0.1,0 0,0 h -6 c -0.1,0 0,0.1 0,0 v -3 c 0,-0.055 -0.045,-0.1 -0.1,-0.1 h -6.2 c -0.055,0 -0.1,0.045 -0.1,0.1 v 3 c 0,0.1 0.1,0 0,0 h -6 c -0.1,0 0,0.1 0,0 v -3 c 0,-0.055 -0.045,-0.1 -0.1,-0.1 h -6.2 c -0.055,0 -0.1,0.045 -0.1,0.1 v 3 c 0,0.1 0.1,0 0,0 h -6 c -0.1,0 0,0.1 0,0 v -3 c 0,-0.055 -0.045,-0.1 -0.1,-0.1 h -6.2 c -0.055,0 -0.1,0.045 -0.1,0.1 v 3 c 0,0.1 0.1,0 0,0 h -6 c -0.1,0 0,0.1 0,0 v -3 c 0,-0.055 -0.045,-0.1 -0.1,-0.1 h -6.2 c -0.055,0 -0.1,0.045 -0.1,0.1 v 3 c 0,0.1 0.1,0 0,0 h -6 c -0.1,0 0,0.1 0,0 v -3 c 0,-0.055 -0.045,-0.1 -0.1,-0.1 h -6.2 c -0.055,0 -0.1,0.045 -0.1,0.1 v 3 c 0,0.1 0.1,0 0,0 h -7.1 c -0.055,0 -0.1,0.045 -0.1,0.1 v 10.1 c 0,0.1 0.1,0 0,0 h -3 c -0.055,0 -0.1,0.045 -0.1,0.1 v 6.2 c 0,0.055 0.045,0.1 0.1,0.1 h 3 c 0.1,0 0,-0.1 0,0 v 6 c 0,0.1 0.1,0 0,0 h -3 c -0.055,0 -0.1,0.045 -0.1,0.1 V 42 c 0,0.055 0.045,0.1 0.1,0.1 h 3 c 0.1,0 0,-0.1 0,0 v 6 c 0,0.1 0.1,0 0,0 h -3 c -0.055,0 -0.1,0.045 -0.1,0.1 v 6.2 c 0,0.055 0.045,0.1 0.1,0.1 h 3 c 0.1,0 0,-0.1 0,0 v 6 c 0,0.1 0.1,0 0,0 h -3 c -0.055,0 -0.1,0.045 -0.1,0.1 v 6.2 c 0,0.055 0.045,0.1 0.1,0.1 h 3 c 0.1,0 0,-0.1 0,0 V 77 c 0,0.055 0.045,0.1 0.1,0.1 z"
       stroke="rgb(0,0,0)"
       stroke-width="0.20"
       id="path7"
       style="stroke:#ff0000;stroke-width:0.0254;stroke-dasharray:none" />
  </g>
  <circle
     style="fill:none;stroke:#ff0000;stroke-width:0.0254;stroke-dasharray:none"
     id="path10-4"
     cx="45.710518"
     cy="45.099998"
     r="6.3003907" />
  <circle
     style="fill:none;stroke:#ff0000;stroke-width:0.0254;stroke-dasharray:none"
     id="path10-0"
     cx="105.18438"
     cy="45.099998"
     r="6.3003907" />
  <circle
     style="fill:none;stroke:#ff0000;stroke-width:0.0254;stroke-dasharray:none"
     id="path10-46"
     cx="165.27502"
     cy="45.099998"
     r="6.3003907" />
  <circle
     style="fill:none;stroke:#ff0000;stroke-width:0.0254;stroke-dasharray:none"
     id="path10-46-5"
     cx="226.32289"
     cy="45.099998"
     r="6.3003907" />
  <circle
     style="fill:none;stroke:#ff0000;stroke-width:0.0254;stroke-dasharray:none"
     id="path10-4-6"
     cx="194.39618"
     cy="99.099998"
     r="6.3003907" />
  <ellipse
     style="fill:none;stroke:#ff0000;stroke-width:0.0257714;stroke-dasharray:none"
     id="path10-4-9"
     cx="65.699997"
     cy="99.099998"
     rx="1.7371143"
     ry="1.7371142" />
  <ellipse
     style="fill:none;stroke:#ff0000;stroke-width:0.0256408;stroke-dasharray:none"
     id="path10-4-9-1"
     cx="83"
     cy="99.099998"
     rx="1.7371796"
     ry="1.7371795" />
  <circle
     style="fill:none;stroke:#ff0000;stroke-width:0.0465198;stroke-dasharray:none"
     id="path10-4-9-1-7"
     cx="135.10001"
     cy="100.525"
     r="3.1517401" />
  <rect
     style="opacity:1;fill:none;stroke:#ff0000;stroke-width:0.0255949;stroke-dasharray:none"
     id="rect10"
     width="11.074405"
     height="6.3383365"
     x="68.812798"
     y="95.95507" />
</svg>
